<?xml version="1.0" encoding="UTF-8" standalone="no"?>
<!-- Created with Inkscape (http://www.inkscape.org/) -->

<svg
   xmlns:dc="http://purl.org/dc/elements/1.1/"
   xmlns:cc="http://creativecommons.org/ns#"
   xmlns:rdf="http://www.w3.org/1999/02/22-rdf-syntax-ns#"
   xmlns:svg="http://www.w3.org/2000/svg"
   xmlns="http://www.w3.org/2000/svg"
   xmlns:sodipodi="http://sodipodi.sourceforge.net/DTD/sodipodi-0.dtd"
   xmlns:inkscape="http://www.inkscape.org/namespaces/inkscape"
   width="128"
   height="128"
   id="svg2"
   version="1.1"
   inkscape:version="0.48.4 r9939"
   sodipodi:docname="New document 1">
  <defs
     id="defs4" />
  <sodipodi:namedview
     id="base"
     pagecolor="#ffffff"
     bordercolor="#666666"
     borderopacity="1.0"
     inkscape:pageopacity="0.0"
     inkscape:pageshadow="2"
     inkscape:zoom="3.959798"
     inkscape:cx="53.851427"
     inkscape:cy="49.689813"
     inkscape:document-units="px"
     inkscape:current-layer="layer1"
     showgrid="false"
     inkscape:window-width="1920"
     inkscape:window-height="1014"
     inkscape:window-x="0"
     inkscape:window-y="27"
     inkscape:window-maximized="1" />
  <metadata
     id="metadata7">
    <rdf:RDF>
      <cc:Work
         rdf:about="">
        <dc:format>image/svg+xml</dc:format>
        <dc:type
           rdf:resource="http://purl.org/dc/dcmitype/StillImage" />
        <dc:title></dc:title>
      </cc:Work>
    </rdf:RDF>
  </metadata>
  <g
     inkscape:label="Layer 1"
     inkscape:groupmode="layer"
     id="layer1"
     transform="translate(0,-924.36218)">
    <path
       style="fill:none;stroke:#000000;stroke-width:0.5;stroke-linecap:butt;stroke-linejoin:miter;stroke-miterlimit:4;stroke-opacity:1;stroke-dasharray:1, 1;stroke-dashoffset:0"
       d="m 9.4517625,1043.9878 109.0964775,0"
       id="path2985"
       inkscape:connector-curvature="0" />
    <path
       style="fill:#666666;fill-opacity:1;stroke:#000000;stroke-width:0.61475503;stroke-linecap:square;stroke-miterlimit:4;stroke-opacity:1;stroke-dasharray:none;stroke-dashoffset:0"
       d="m 46.557378,1005.6352 0,-30.92478 1.412393,0 c 1.385199,0 1.432333,0.0171 2.447963,0.88962 2.297475,1.97366 6.73616,4.0772 9.894065,4.68888 1.979373,0.3834 5.397031,0.3834 7.376402,0 3.223482,-0.62438 7.530516,-2.66039 9.976742,-4.71617 0.981585,-0.82491 1.062617,-0.85392 2.396805,-0.85805 l 1.380875,-0.005 0,30.9248 0,30.9248 -17.442623,0 -17.442623,0 0,-30.9248 z"
       id="path3767"
       inkscape:connector-curvature="0" />
    <path
       style="fill:#333333;fill-opacity:1;stroke:#000000;stroke-width:0.05208989;stroke-linecap:square;stroke-miterlimit:4;stroke-opacity:1;stroke-dasharray:none;stroke-dashoffset:0"
       d="m 63.888727,975.12756 c -0.05277,-0.0871 -2.167902,-4.36502 -4.7003,-9.50677 l -4.604362,-9.34866 0,-15.97584 0,-15.97584 9.415935,0 9.415935,0 0,15.97041 0,15.97038 -4.606371,9.35411 c -2.533505,5.14476 -4.655538,9.42525 -4.715634,9.51221 -0.08966,0.12979 -0.126476,0.12979 -0.205203,0 l 0,0 z"
       id="path3775"
       inkscape:connector-curvature="0" />
  </g>
</svg>
